<?xml version="1.0" encoding="utf-8"?>
<!-- Generator: Adobe Illustrator 21.1.0, SVG Export Plug-In . SVG Version: 6.00 Build 0)  -->
<svg version="1.1" id="Layer_3" xmlns="http://www.w3.org/2000/svg" xmlns:xlink="http://www.w3.org/1999/xlink" x="0px" y="0px"
	 viewBox="0 0 194.7 61.7" style="enable-background:new 0 0 194.7 61.7;" xml:space="preserve">
<style type="text/css">
	.st0{fill:#4D879F;}
	.st1{fill:#201600;}
	.st2{font-family:'MyriadPro-Bold';}
	.st3{font-size:37.792px;}
	.st4{fill:#48B1C5;}
	.st5{fill:url(#SVGID_1_);}
</style>
<title>logo</title>
<path class="st0" d="M32.6,9.4c-0.3,0.2,0.1,1.9,1.1,3.1c0.8,1,1.9,1.5,2.5,1.8c0.5,0.2,0.9,0.4,1.7,0.8c0.3,0.2,0.9,0.5,1.3,0.8
	c0.4,0.3,1.3,1.1,1.6,3.3c0.3-0.4,0.7-1.2,0.8-2.3c0-0.4,0.1-1.7-0.7-3.1c-0.3-0.5-0.7-1.3-1.7-1.8c-1.2-0.6-1.7,0.1-3.4-0.6
	c-0.8-0.4-1.8-1-1.9-1.1C33.1,9.6,32.8,9.3,32.6,9.4z"/>
<path class="st0" d="M10.9,22.1c0.3-0.2,1.3,0.8,1.7,2.2c0.3,1.1,0.2,2.2,0.1,2.8c-0.1,0.5-0.1,0.9-0.2,1.7c0,0.3-0.1,1,0,1.4
	c0,0.4,0.2,1.5,1.6,2.7c-0.4,0-1.2,0-2-0.4c-0.3-0.2-1.3-0.7-1.9-1.8c-0.2-0.4-0.6-1.2-0.5-2.1c0.1-1.3,0.9-1.4,1.1-3
	c0.1-0.8,0.1-1.8,0.1-2C10.9,22.6,10.8,22.2,10.9,22.1z"/>
<text transform="matrix(1 0 0 1 61.8203 48.2855)"><tspan x="0" y="0" class="st1 st2 st3">Hot</tspan><tspan x="61.7" y="0" class="st4 st2 st3">Stat</tspan></text>
<linearGradient id="SVGID_1_" gradientUnits="userSpaceOnUse" x1="10.3653" y1="30.9092" x2="52.101" y2="30.9092">
	<stop  offset="5.128205e-03" style="stop-color:#FFFFFF"/>
	<stop  offset="3.510865e-02" style="stop-color:#ECF4F8"/>
	<stop  offset="0.1337" style="stop-color:#B2D2E2"/>
	<stop  offset="0.2248" style="stop-color:#85B7D1"/>
	<stop  offset="0.3054" style="stop-color:#64A4C5"/>
	<stop  offset="0.3725" style="stop-color:#5098BE"/>
	<stop  offset="0.4179" style="stop-color:#4994BB"/>
	<stop  offset="1" style="stop-color:#000000"/>
</linearGradient>
<path class="st5" d="M51.6,34.4c-0.3-1.7-0.5-2.9-1.3-4.4c-0.6-1.3-1.4-2.3-2.8-4c-0.7-0.9-1.3-1.6-1.7-2c0.1,0.9,0.1,1.7,0.1,2.2
	c-0.1,0.7-0.2,1.4-0.6,2.3c-0.3,0.6-0.7,1-0.9,1.2c0.1-0.5,0.1-1.2-0.1-2c-0.2-1-0.7-1.7-1.7-2.9c-1.2-1.5-2.1-2.6-3.5-3.9
	c-1-0.9-2-1.7-3.4-2.5c-1.4-0.8-1.7-0.6-3.4-1.4c-2.2-1-3.7-2.2-4.1-2.5c-0.9-0.7-2.3-1.9-3.6-4C23.5,8.6,23,7,22.5,5.3
	C22.1,4,21.8,2.8,21.7,2c-1.3,1.3-2.9,3.2-4.3,5.7c-0.9,1.6-2.4,4.4-2.9,8.5c-0.2,2.1-0.5,4.6,0.6,7.3c0.1,0.3,0.7,1.6,2,4.1
	c1.1,2.3,1.4,2.7,1.7,3.6c0.1,0.4,0.6,2,0.7,4.2c0,1.8,0.1,2.8-0.7,3.9c-0.2,0.2-0.8,1.1-2,1.4c-0.2,0.1-1,0.3-2,0
	c-1.3-0.4-2.1-1.8-2.3-2.2c-0.8-1.5-0.5-2.8-0.8-2.9c-0.2,0-0.6,1.1-0.9,2.5c-0.3,1.7-0.8,4.2,0.1,7.3c0.9,3.2,2.6,5.2,4.4,7.2
	c1.1,1.2,2.8,3.1,5.4,4.6v-8.6H24v10.1c1.1,0.4,2.2,0.6,3.1,0.7V36.8h3.4v23.1c0.9,0,1.9,0,3.1-0.1V33.3h3.4v25.7
	c0.3-0.1,0.6-0.2,1-0.3c0.8-0.3,1.5-0.6,2.1-0.9V37.8h3.4v17.9c0.2-0.1,0.3-0.3,0.5-0.4c1-0.8,1.9-1.7,2.6-2.4V42.2h3.4v5.7
	c0.8-1.7,1.7-4.2,2-7.4C52.2,37.9,51.9,35.8,51.6,34.4z"/>
</svg>
